<?xml version="1.0" encoding="utf-8"?>
<!-- Generator: Adobe Illustrator 21.0.2, SVG Export Plug-In . SVG Version: 6.00 Build 0)  -->
<svg fill="dimgrey" version="1.1" id="Layer_1" xmlns="http://www.w3.org/2000/svg" xmlns:xlink="http://www.w3.org/1999/xlink" x="0px" y="0px"
	 width="30.2px" height="26.2px" viewBox="0 0 21.2 17.2" style="enable-background:new 0 0 21.2 17.2;" xml:space="preserve">
<path d="M6.6,17.2c8,0,12.4-6.6,12.4-12.4c0-0.2,0-0.4,0-0.6c0.9-0.6,1.6-1.4,2.2-2.3c-0.9,0.5-1.7,0.7-2.6,0.8
	c0.9-0.5,1.6-1.4,1.9-2.4c-0.8,0.5-1.8,0.9-2.8,1.1C16.9,0.6,15.8,0,14.5,0c-2.4,0-4.4,2-4.4,4.4c0,0.3,0,0.7,0.1,1
	c-3.5-0.3-6.7-2-8.8-4.6C1,1.4,0.8,2.2,0.8,3c0,1.5,0.7,2.8,1.9,3.6c-0.7,0-1.4-0.2-2-0.5c0,0,0,0,0,0.1c0,2.1,1.5,3.9,3.5,4.3
	c-0.4,0.1-0.8,0.2-1.1,0.2s-0.6,0-0.8-0.1c0.6,1.7,2.2,3,4.1,3C4.9,14.8,3,15.5,1,15.5c-0.4,0-0.7,0-1-0.1
	C1.8,16.5,4.1,17.2,6.6,17.2"/>
</svg>
