<?xml version="1.0" encoding="utf-8"?>
<!-- Generator: Adobe Illustrator 21.0.2, SVG Export Plug-In . SVG Version: 6.00 Build 0)  -->
<svg version="1.1" id="Layer_1" xmlns="http://www.w3.org/2000/svg" xmlns:xlink="http://www.w3.org/1999/xlink" x="0px" y="0px"
	 width="21px" height="21px" viewBox="0 0 21 21" style="enable-background:new 0 0 21 21;" xml:space="preserve">
<g>
	<path d="M10.5,0C4.7,0,0,4.7,0,10.5c0,4.3,2.6,8,6.3,9.6c0-0.7,0-1.6,0.2-2.4C6.7,16.9,7.8,12,7.8,12s-0.3-0.7-0.3-1.7
		c0-1.6,0.9-2.7,2-2.7c1,0,1.4,0.7,1.4,1.6c0,1-0.6,2.4-0.9,3.7c-0.3,1.1,0.6,2,1.7,2c2,0,3.3-2.6,3.3-5.6c0-2.3-1.5-4-4.4-4
		c-3.2,0-5.2,2.4-5.2,5c0,0.9,0.3,1.6,0.7,2.1c0.2,0.2,0.2,0.3,0.2,0.6c-0.1,0.2-0.2,0.7-0.2,0.8c-0.1,0.3-0.3,0.4-0.5,0.3
		c-1.5-0.6-2.2-2.2-2.2-4c0-3,2.5-6.6,7.5-6.6c4,0,6.6,2.9,6.6,6c0,4.1-2.3,7.2-5.7,7.2c-1.1,0-2.2-0.6-2.6-1.3c0,0-0.6,2.4-0.7,2.9
		c-0.2,0.8-0.7,1.6-1.1,2.2c0.9,0.3,1.9,0.4,3,0.4C16.3,21,21,16.3,21,10.5C21,4.7,16.3,0,10.5,0z"/>
</g>
</svg>
