<?xml version="1.0" encoding="utf-8"?>
<!-- Generator: Adobe Illustrator 21.0.2, SVG Export Plug-In . SVG Version: 6.00 Build 0)  -->
<svg version="1.1" id="Layer_1" xmlns="http://www.w3.org/2000/svg" xmlns:xlink="http://www.w3.org/1999/xlink" x="0px" y="0px"
	 width="22.6px" height="20.1px" viewBox="0 0 22.6 20.1" style="enable-background:new 0 0 22.6 20.1;" xml:space="preserve">
<g>
	<path d="M22.6,9.1c0-1.6-1.3-2.8-2.8-2.8c-0.8,0-1.5,0.3-2,0.8c-1.6-1-3.6-1.7-5.9-1.8c0-0.9,0.4-1.8,1.2-2.4
		c0.7-0.6,1.7-0.8,2.6-0.6l0.1,0c0,0,0,0.1,0,0.1c0,1.3,1.1,2.4,2.4,2.4s2.4-1.1,2.4-2.4c0-1.3-1.1-2.4-2.4-2.4
		c-0.8,0-1.6,0.4-2,1.1L16,1.1c-1.3-0.3-2.6,0-3.7,0.9c-1,0.8-1.6,2.1-1.6,3.4C8.5,5.4,6.4,6,4.9,7.1c-0.5-0.5-1.2-0.8-2-0.8
		C1.3,6.2,0,7.5,0,9.1c0,1.1,0.6,2,1.5,2.5c-0.1,0.4-0.1,0.7-0.1,1.1c0,4.1,4.4,7.4,9.9,7.4s9.9-3.3,9.9-7.4c0-0.4,0-0.7-0.1-1.1
		C22,11.1,22.6,10.2,22.6,9.1z M18.2,1.2c0.6,0,1.1,0.5,1.1,1.1c0,0.6-0.5,1.1-1.1,1.1c-0.6,0-1.1-0.5-1.1-1.1
		C17.1,1.7,17.6,1.2,18.2,1.2z M1.2,9.1c0-0.9,0.7-1.6,1.6-1.6c0.4,0,0.7,0.1,1,0.4C3,8.6,2.3,9.4,1.9,10.4
		C1.5,10.1,1.2,9.6,1.2,9.1z M17.6,16.9c-1.7,1.2-3.9,1.9-6.3,1.9s-4.6-0.7-6.3-1.9c-1.6-1.2-2.4-2.7-2.4-4.2c0-1.6,0.9-3.1,2.4-4.2
		c1.7-1.2,3.9-1.9,6.3-1.9s4.6,0.7,6.3,1.9c1.6,1.2,2.4,2.7,2.4,4.2C20,14.2,19.1,15.8,17.6,16.9z M20.7,10.4
		c-0.4-1-1.1-1.8-1.9-2.6c0.3-0.2,0.6-0.4,1-0.4c0.9,0,1.6,0.7,1.6,1.6C21.4,9.6,21.1,10.1,20.7,10.4z"/>
	<g>
		<circle cx="7.7" cy="10.9" r="1.3"/>
		<circle cx="14.9" cy="10.9" r="1.3"/>
	</g>
	<path d="M14.4,14.1c-0.9,0.8-2.1,1.3-3.3,1.3c-1.4,0-2.7-0.6-3.6-1.6c-0.2-0.2-0.6-0.3-0.9,0c-0.2,0.2-0.3,0.6,0,0.9
		c1.2,1.2,2.8,2,4.5,2c1.5,0,3-0.6,4.2-1.6c0.3-0.2,0.3-0.6,0-0.9C15,13.9,14.6,13.9,14.4,14.1z"/>
</g>
</svg>
