<?xml version="1.0" encoding="utf-8"?>
<!-- Generator: Adobe Illustrator 21.0.2, SVG Export Plug-In . SVG Version: 6.00 Build 0)  -->
<svg fill="dimgrey" version="1.1" id="Layer_1" xmlns="http://www.w3.org/2000/svg" xmlns:xlink="http://www.w3.org/1999/xlink" x="0px" y="0px"
	 width="29px" height="7px" viewBox="0 0 29 7" style="enable-background:new 0 0 29 7;" xml:space="preserve">
<g>
	<g>
		<path d="M3.5,0C1.6,0,0,1.6,0,3.5C0,5.4,1.6,7,3.5,7S7,5.4,7,3.5C7,1.6,5.4,0,3.5,0z M14.5,0C12.6,0,11,1.6,11,3.5
			C11,5.4,12.6,7,14.5,7S18,5.4,18,3.5C18,1.6,16.4,0,14.5,0z M25.5,0C23.6,0,22,1.6,22,3.5C22,5.4,23.6,7,25.5,7S29,5.4,29,3.5
			C29,1.6,27.4,0,25.5,0z"/>
	</g>
</g>
</svg>
